<?xml version="1.0" encoding="UTF-8"?>
<svg id="_Слой_1" data-name="Слой 1" xmlns="http://www.w3.org/2000/svg" viewBox="0 0 1135.7 639">
  <defs>
    <style>
      .cls-1 {
        fill: #97c2a8;
      }

      .cls-1, .cls-2 {
        stroke-width: 0px;
      }

      .cls-2 {
        fill: #f4a49b;
      }
    </style>
  </defs>
  <path class="cls-1" d="M677.53,269.91c-3.01,6.63-3.04,14.04-4.34,21.06-7.14,38.74-13.97,77.53-20.89,116.31-2.5,14.02-5.09,28.03-7.34,42.09-.81,5.07-2.24,8.34-8.33,7.54-5.93-.78-13.17,2.29-17.59-1.31-4.19-3.41-2.87-10.79-3.89-16.45-9.7-54.1-19.41-108.2-29.09-162.3-.43-2.41-.83-4.77-2.24-6.86-2.82.86-1.8,2.93-1.66,4.48,1.64,18.84,2.94,37.72,5.14,56.5,4.58,39.15,1.57,78.43,2.75,117.64.21,7.11-2.13,8.92-8.7,8.36-6.21-.53-12.5-.22-18.76-.08-3.36.08-5.09-1.07-4.76-4.62.1-1.11,0-2.23,0-3.35,0-75.89.11-151.79-.18-227.68-.03-7.05,2.08-8.91,8.66-8.34,6.21.54,12.5.06,18.76.14,11.45.14,18.57,5.52,20.79,16.91,3.5,17.91,6.49,35.91,9.48,53.92,3.54,21.28,7.06,42.58,10.18,63.92,1.89,12.95,3.01,26.01,5.71,39.03,1.83-13.63,3.98-27.23,5.44-40.9,2.85-26.81,8.3-53.19,12.73-79.74,2.02-12.06,3.84-24.16,6.25-36.15,2.26-11.22,9.46-16.85,20.77-16.99,7.6-.09,15.19.08,22.79-.05,3.44-.06,4.98,1.29,4.73,4.73-.1,1.33,0,2.68,0,4.02,0,75.45,0,150.89,0,226.34q0,8.77-8.67,8.79c-6.03,0-12.07-.2-18.09.06-4.19.18-5.35-1.55-5.33-5.51.12-31.03-.72-62.08.34-93.07.82-23.75,4.02-47.42,6.1-71.14.5-5.66.75-11.34,1.11-17-.62-.09-1.25-.17-1.87-.26Z"/>
  <path class="cls-1" d="M541.81,352.81c0,32.13-.17,64.26.15,96.39.06,6.33-1.95,8.27-7.98,7.72-4.87-.44-9.86-.48-14.72,0-6.56.66-8.83-1.25-8.73-8.34.43-29.89.19-59.8.18-89.7q0-9.11-9.33-9.12-19.95-.03-19.95,19.88c0,26.78-.11,53.55.09,80.33.04,5.05-1.11,7.36-6.67,6.95-6.22-.46-12.51-.35-18.75-.02-4.34.23-6.13-1.55-6.3-5.62-.09-2.22-.42-4.44-.42-6.66-.02-60.25-.06-120.49,0-180.74.02-17.18,4.04-32.77,18.89-43.57,14.66-10.66,30.72-12.16,46.86-4.86,16.89,7.64,26.07,21.82,26.41,40.28.59,32.34.16,64.7.16,97.06h.08ZM481.44,285.29c0,9.8.03,19.6-.02,29.39-.02,2.92.17,5.38,4.1,5.32,6.91-.1,13.82-.04,20.73-.04,3.05,0,4.45-1.57,4.44-4.56-.03-19.82.26-39.64-.21-59.45-.19-7.96-8.15-14.87-14.95-14.49-8.14.46-13.96,6.87-14.07,15.78-.11,9.35-.03,18.7-.03,28.06Z"/>
  <path class="cls-1" d="M993.96,350.33c-.69.09-1.54.2-2.38.3-9.25,1.19-10.2.4-10.22-8.65-.01-5.36.23-10.73-.07-16.07-.25-4.52,1.55-6.81,6-6.84,11.84-.07,23.68.04,35.52-.08,4.37-.05,4.38,2.67,4.37,5.78-.04,13.84-.01,27.68-.01,41.52,0,27.9-.1,55.81.09,83.71.04,5.06-1.12,7.32-6.68,6.95-6.9-.46-13.85-.22-20.77-.08-3.46.07-4.82-1.33-4.74-4.75.14-5.54.04-11.09.04-17.57-3.1,2.43-3.71,5.35-5.02,7.74-11.21,20.42-34.48,21.61-47.53,2.43-4.27-6.27-6.58-13.24-6.6-20.7-.14-57.59-.32-115.18-.01-172.77.11-20.47,20.86-39.04,40.12-39.57,32.16-.89,51.05,17.56,51.09,49.68.01,9.38-.13,18.75.06,28.12.08,4.02-1.31,5.62-5.42,5.5-7.14-.22-14.3-.22-21.44,0-4.23.13-5.36-1.79-5.31-5.66.15-10.49.12-20.98.02-31.47-.09-9.6-5.32-15.3-13.89-15.43-8.06-.12-14.34,6.16-14.36,15.18-.11,51.56-.11,103.13,0,154.69.02,8.96,6.43,15.39,14.36,15.19,8.38-.21,13.84-6.18,13.88-15.52.09-18.75.04-37.5.02-56.25,0-1.75.34-3.6-1.12-5.37Z"/>
  <path class="cls-1" d="M718.86,334.52c0-37.95.14-75.9-.14-113.85-.05-6.2,1.73-8.02,7.88-7.82,13.39.44,26.81.06,40.22.17,23.26.21,43.83,20.02,44.26,43.35.44,23.88.45,47.78.01,71.66-.42,22.86-21.49,42.25-45.73,42.95q-13.34.38-13.34,13.56c0,21.88-.17,43.76.12,65.63.07,5.39-1.65,7.07-6.88,6.76-6.46-.39-12.98-.45-19.43.01-5.72.41-7.1-1.78-7.07-7.23.21-38.4.11-76.8.11-115.19ZM750.9,291.19c0,11.36-.18,22.72.04,34.07.31,15.93-3.5,13.82,14.86,13.79,7.77-.01,13.22-5.24,13.28-12.91.19-22.71.18-45.42,0-68.13-.06-7.78-5.58-13.28-13.39-14.02-2.65-.25-5.37.14-8.01-.14-5.08-.55-7.08,1.09-6.92,6.61.39,13.57.13,27.16.13,40.74Z"/>
  <path class="cls-2" d="M159.25,356.78c3.37-1.94,5.96-4.26,5.81-8.69-1.35-39.35,22.46-58.53,55.97-66.32,17.98-4.18,19.32-2.64,16.3,15.7-2.97,17.99-10.03,33.59-24.6,45.23-10.66,8.52-23.04,12.45-36.4,13.46-8.26.63-16.42,9.02-17.03,17.22-.98,13.24-1.19,26.55-2.79,40.2,2.89-7.22,10.98-8.87,14.66-15.2,3.15-5.43,10.77-7.17,16.47-3.72,3.47,2.11,6.55,2.71,10.55,2,6.49-1.15,11.73,1.17,15.27,7.13,2.71,4.56,9.66,5.89,14.4,3.17,11.07-6.34,18.26-4.33,23.89,7.08,1.2,2.44,3.26,3.56,4.99,5.2,3.85,3.68,6.11,7.92,4,13.17-2.15,5.34-5.87,8.53-12.26,8.43-15.85-.25-31.72-.07-47.57-.07-37.9,0-75.8.01-113.71-.02-4.6,0-9.95.96-11.77-5-3.37-11.08-1.94-17.61,4.85-21.45,3.03-1.71,5.23-3.87,7.35-6.51,3.44-4.28,8.05-5.76,13.14-3.22,3.49,1.74,6.64,2.65,10.69,1.65,4.22-1.04,7.82,1.08,10.27,4.76.74,1.11,1.19,2.5,2.13,3.38,5.99,5.61,16.33,6.27,23.2,1.68,1.53-1.02,1.7-2.47,1.91-4.03,4.57-34.78,5.89-69.3-8.3-102.54-1.56-3.67-3.76-7.07-5.78-10.53-1.23-2.1-3.13-2.96-5.65-2.76-31.25,2.52-49.91-17.47-56.52-45.53-1.27-5.39-1.84-10.95-2.52-16.46-.52-4.25,1.9-6.58,5.9-6.15,13.71,1.46,27.5,2.41,40.01,9.41,15.22,8.52,23.54,21.28,23.16,38.54-.24,11.07,1.98,20.77,7.17,30.57,7.49,14.13,10.02,29.86,11.74,45.65.16,1.46-.53,3.12,1.11,4.56ZM165.22,412.7c6.82-.7,14.58-3.36,18.37,2.62,4.29,6.77,14.46,7.77,15.45,17.17.2,1.87,2.42,1.64,3.94,1.64,15.38.02,30.77,0,46.15,0,2.98,0,5.33-.81,5.59-4.31.23-3.11-.08-5.91-3.97-6.52-3-.47-5.07-2.05-5.15-5.18-.13-4.99-3.15-7.36-7.47-7.92-4.17-.53-7.19,1.65-8.83,5.66-1.75,4.29-4.19,4.33-6.71.71-2.05-2.95-4.73-3.17-7.65-2.03-4.05,1.58-5.31.24-6.09-3.94-1.49-7.96-7.93-10.38-14.22-5.51-3.73,2.89-5.62,2.55-7.29-1.95-1.58-4.25-6.15-5.61-8.48-2.55-3.77,4.95-6.44,10.57-13.65,12.11ZM137.06,434.16c2.45,0,4.91,0,7.36,0,14.27-.03,28.54-.05,42.81-.14,1.62-.01,4.09.63,4.15-2.02.06-2.69-1.84-3.16-4.21-2.51-4.29,1.18-4.59-2.18-5.51-4.9-2.49-7.34-7.27-8.58-12.82-3.15-2.34,2.3-4.12,3.83-7.19.94-1.93-1.82-16.78.18-18.62,2.09-.15.16-.32.33-.4.53-1.44,3.65-4.35,3.86-7.71,3.58-6.78-.57-9.97-8.65-17.27-8.19-.23.01-.58-1.97-.88-3.03-1.55-5.55-4.58-6.41-8.82-2.2-2.66,2.64-4.66,3.72-6.18-.77-.96-2.84-2.72-4.69-5.9-4.27-2.76.36-4.32,2.17-4.63,4.93-.25,2.23-1.16,3.95-3.59,4.09-4.36.25-7.93,1.78-6.87,6.73,1,4.66,2.5,8.81,9.47,8.5,15.58-.68,31.21-.21,46.81-.21Z"/>
  <path class="cls-1" d="M407.5,350.26c0,33.01-.12,66.03.12,99.04.04,5.67-1.17,8.16-7.36,7.65-6.43-.54-12.95-.29-19.41-.06-4.02.14-5.59-1.21-5.45-5.36.25-7.58.07-15.17.07-22.75,0-58.89-.11-117.78.15-176.67.03-6.74-1.67-8.78-8.54-8.61-18.54.44-18.55.12-18.55-18.12q0-12.4,12.39-12.4c21.66,0,43.32,0,64.97,0q8.54,0,8.55,8.84c0,5.35-.22,10.72.07,16.06.23,4.3-1.21,6.12-5.68,5.84-4.67-.29-9.41.33-14.05-.16-6.16-.64-7.42,1.97-7.38,7.65.24,33.01.12,66.03.12,99.04Z"/>
  <path class="cls-1" d="M827.38,268.62c0-16.5-.01-33,.01-49.5,0-2.81-.7-6.28,3.9-6.13,19.59.62,39.28-1.8,58.78,1.43,18.66,3.09,28.4,14.99,28.49,33.77.06,12.24-5.99,20.61-16.27,26.42-1.94,1.1-3.98,2.01-5.96,3.04-4.73,2.46-3.99,4.65.25,6.87,2.96,1.55,5.96,3.09,8.65,5.04,9.74,7.06,14.06,16.91,14.44,28.74.14,4.21-1.45,6.13-5.85,6-6.91-.2-13.84-.19-20.75,0-4,.11-5.71-1.35-5.53-5.44.16-3.54.13-7.07-.75-10.62-2.37-9.56-7.07-13.62-16.93-13.6-15.64.03-13.12-1.85-13.24,12.88-.14,16.74-.03,16.82-16.54,16.71-14.89-.09-12.53,1.87-12.66-12.8-.13-14.27-.03-28.54-.03-42.81ZM855.63,254.21c0,3.34-.02,6.68,0,10.02.01,2.13.47,4.49,2.94,4.51,9.04.06,18.29,2.01,26.94-2.45,5.01-2.58,7.67-6.49,7.55-12.27-.12-6.11-3.37-9.94-8.61-12.37-4.6-2.14-9.55-1.85-14.46-1.84q-14.4.03-14.37,14.4Z"/>
  <path class="cls-1" d="M827.39,398.59c.45-6.28-1.11-14.19.68-21.85,3.99-17.09,19.34-30.61,36.94-32.25,10.95-1.02,21.79-.52,31.92,5.01,12.46,6.81,19.67,16.96,21.73,31.01,1.89,12.9,1.48,25.89.69,38.73-1.18,19.12-13.89,33.49-32.75,37.6-18.38,4-35.51,1.78-49.13-13.14-6.48-7.11-9.71-15.4-10.03-24.85-.22-6.24-.04-12.5-.04-20.25ZM890.32,401.7h.04c0-4.46.02-8.93,0-13.39-.05-11.59-5.27-16.99-16.5-17.1-12.23-.12-18.01,5.24-18.21,17.15-.14,8.26-.1,16.52-.02,24.78.15,15.53,13.51,23.51,27.45,16.43,4.55-2.31,7.17-5.93,7.23-11.12.06-5.58.01-11.16.01-16.74Z"/>
</svg>